<svg width="37" height="31" viewBox="0 0 37 31" fill="none" xmlns="http://www.w3.org/2000/svg">
<path fill-rule="evenodd" clip-rule="evenodd" d="M25.5 25.2975H13.0722L5.07178 31V25.2975H0.5V3H25.5V25.2975H25.5ZM23.2142 5.27186H2.78577V23.0256H7.35755V26.5755L12.3374 23.0256H23.2142V5.27186ZM14.3634 13.391V19.9249H11.7335V13.391H14.3634ZM13.048 11.4314C13.9555 11.4314 14.6913 10.6998 14.6913 9.79798C14.6913 8.896 13.9555 8.16444 13.048 8.16444C12.1405 8.16444 11.4044 8.89601 11.4044 9.79798C11.4044 10.6998 12.1405 11.4314 13.048 11.4314Z" fill="#FF963C"/>
<circle cx="29" cy="8" r="8" fill="#EA6C00"/>
<g clip-path="url(#clip0_0_1)">
<path d="M29.9854 4.72727V12H29.1048V5.65057H29.0621L27.2866 6.82955V5.93466L29.1048 4.72727H29.9854Z" fill="white"/>
</g>
<defs>
<clipPath id="clip0_0_1">
<rect width="16" height="14.5" fill="white" transform="translate(21 2)"/>
</clipPath>
</defs>
</svg>
