<svg width="116" height="134" viewBox="0 0 116 134" fill="none" xmlns="http://www.w3.org/2000/svg">
<path d="M0 33.5L58 0L116 33.5V100.5L58 134L0 100.5L0 33.5Z" fill="url(#paint0_linear_0_1)"/>
<path d="M33.4492 102H28.9606V87.4545H33.6481C35.0591 87.4545 36.2665 87.7457 37.2702 88.3281C38.274 88.9058 39.0434 89.7367 39.5785 90.821C40.1135 91.9006 40.381 93.1932 40.381 94.6989C40.381 96.214 40.1112 97.5185 39.5714 98.6122C39.0316 99.7012 38.2456 100.539 37.2134 101.126C36.1812 101.709 34.9265 102 33.4492 102ZM30.7219 100.438H33.3356C34.5382 100.438 35.5349 100.205 36.3256 99.7415C37.1164 99.2775 37.7058 98.617 38.0941 97.7599C38.4824 96.9029 38.6765 95.8826 38.6765 94.6989C38.6765 93.5246 38.4847 92.5137 38.1012 91.6662C37.7177 90.8139 37.1448 90.1605 36.3825 89.706C35.6201 89.2467 34.6708 89.017 33.5344 89.017H30.7219V100.438ZM43.1083 102V91.0909H44.7844V102H43.1083ZM43.9606 89.2727C43.6339 89.2727 43.3522 89.1615 43.1154 88.9389C42.8834 88.7164 42.7674 88.4489 42.7674 88.1364C42.7674 87.8239 42.8834 87.5563 43.1154 87.3338C43.3522 87.1113 43.6339 87 43.9606 87C44.2873 87 44.5666 87.1113 44.7987 87.3338C45.0354 87.5563 45.1538 87.8239 45.1538 88.1364C45.1538 88.4489 45.0354 88.7164 44.7987 88.9389C44.5666 89.1615 44.2873 89.2727 43.9606 89.2727ZM49.5305 95.4375V102H47.8544V91.0909H49.4737V92.7955H49.6158C49.8714 92.2415 50.2597 91.7964 50.7805 91.4602C51.3014 91.1193 51.9737 90.9489 52.7976 90.9489C53.5362 90.9489 54.1825 91.1004 54.7365 91.4034C55.2905 91.7017 55.7214 92.1562 56.0291 92.767C56.3369 93.3731 56.4908 94.1402 56.4908 95.0682V102H54.8146V95.1818C54.8146 94.3248 54.5921 93.6572 54.147 93.179C53.7019 92.696 53.0911 92.4545 52.3146 92.4545C51.7796 92.4545 51.3014 92.5705 50.88 92.8026C50.4633 93.0346 50.1342 93.3731 49.8928 93.8182C49.6513 94.2633 49.5305 94.803 49.5305 95.4375ZM61.2298 95.4375V102H59.5536V91.0909H61.1729V92.7955H61.315C61.5707 92.2415 61.9589 91.7964 62.4798 91.4602C63.0006 91.1193 63.6729 90.9489 64.4968 90.9489C65.2354 90.9489 65.8817 91.1004 66.4357 91.4034C66.9897 91.7017 67.4206 92.1562 67.7283 92.767C68.0361 93.3731 68.19 94.1402 68.19 95.0682V102H66.5138V95.1818C66.5138 94.3248 66.2913 93.6572 65.8462 93.179C65.4012 92.696 64.7904 92.4545 64.0138 92.4545C63.4788 92.4545 63.0006 92.5705 62.5792 92.8026C62.1625 93.0346 61.8335 93.3731 61.592 93.8182C61.3505 94.2633 61.2298 94.803 61.2298 95.4375ZM75.8267 102.227C74.7756 102.227 73.8688 101.995 73.1065 101.531C72.349 101.062 71.7642 100.409 71.3523 99.571C70.9451 98.7282 70.7415 97.7481 70.7415 96.6307C70.7415 95.5133 70.9451 94.5284 71.3523 93.6761C71.7642 92.8191 72.3371 92.1515 73.071 91.6733C73.8097 91.1903 74.6714 90.9489 75.6562 90.9489C76.2244 90.9489 76.7855 91.0436 77.3395 91.233C77.8935 91.4223 78.3977 91.7301 78.8523 92.1562C79.3068 92.5777 79.669 93.1364 79.9389 93.8324C80.2088 94.5284 80.3438 95.3854 80.3438 96.4034V97.1136H71.9347V95.6648H78.6392C78.6392 95.0492 78.5161 94.5 78.2699 94.017C78.0284 93.5341 77.6828 93.1529 77.233 92.8736C76.7879 92.5942 76.2623 92.4545 75.6562 92.4545C74.9886 92.4545 74.411 92.6203 73.9233 92.9517C73.4403 93.2784 73.0687 93.7045 72.8082 94.2301C72.5478 94.7557 72.4176 95.3191 72.4176 95.9205V96.8864C72.4176 97.7102 72.5597 98.4086 72.8438 98.9815C73.1326 99.5497 73.5327 99.983 74.044 100.281C74.5554 100.575 75.1496 100.722 75.8267 100.722C76.267 100.722 76.6648 100.66 77.0199 100.537C77.3797 100.409 77.6899 100.22 77.9503 99.9688C78.2107 99.7131 78.4119 99.3958 78.554 99.017L80.1733 99.4716C80.0028 100.021 79.7164 100.504 79.3139 100.92C78.9115 101.332 78.4143 101.654 77.8224 101.886C77.2306 102.114 76.5653 102.227 75.8267 102.227ZM82.8935 102V91.0909H84.5128V92.7386H84.6264C84.8253 92.1989 85.1851 91.7609 85.706 91.4247C86.2268 91.0885 86.8139 90.9205 87.4673 90.9205C87.5904 90.9205 87.7443 90.9228 87.929 90.9276C88.1136 90.9323 88.2533 90.9394 88.348 90.9489V92.6534C88.2912 92.6392 88.161 92.6179 87.9574 92.5895C87.7585 92.5563 87.5478 92.5398 87.3253 92.5398C86.795 92.5398 86.3215 92.651 85.9048 92.8736C85.4929 93.0914 85.1662 93.3944 84.9247 93.7827C84.688 94.1662 84.5696 94.6042 84.5696 95.0966V102H82.8935Z" fill="white"/>
<rect opacity="0.01" x="30" y="27" width="56" height="56" fill="white"/>
<g clip-path="url(#clip0_0_1)">
<g clip-path="url(#clip1_0_1)">
<path d="M41.0234 73.2289C39.9344 74.316 39.9362 76.0846 41.0288 77.1788C42.123 78.2714 43.8917 78.2731 44.9805 77.1844L53.6829 68.4822L49.7255 64.525L41.0234 73.2289Z" fill="white"/>
<path d="M84.2807 40.3726L76.4311 48.2493L75.1201 46.9338L82.7092 38.7941L81.9738 38.0562L73.807 45.6162L72.494 44.3004L80.1175 36.1951L79.3244 35.3976L71.1828 42.9829L69.8698 41.6651L77.7191 33.7883L76.9351 33C76.9351 33 69.5451 38.8138 65.8966 41.8145C64.6176 42.8638 64.103 44.6404 64.2822 46.2911C64.528 48.523 64.7987 49.3888 63.895 50.2959L56.239 57.9764C46.4183 48.1179 35.6683 37.329 34.5616 36.2345C33.9106 35.5901 32.9776 35.5901 32.3931 36.177C30.3556 38.2217 36.5077 50.4365 44.612 60.6746C46.3017 58.97 47.839 57.4364 47.839 57.4364L67.5219 77.1858C68.7396 78.4082 70.5119 78.1255 71.4466 77.1858H71.4483C72.5317 76.0988 72.5317 74.333 71.4483 73.2457C69.3655 71.156 65.0964 66.8683 60.1764 61.9273L67.8245 54.2522C68.7432 53.3307 69.5915 53.6134 71.8161 53.8742C73.4858 54.0705 75.3137 53.5666 76.3668 52.2544C79.3334 48.5481 85.0001 41.0928 85.0001 41.0928L84.2807 40.3726Z" fill="white"/>
</g>
</g>
<defs>
<linearGradient id="paint0_linear_0_1" x1="25.9565" y1="165.202" x2="147.019" y2="118.302" gradientUnits="userSpaceOnUse">
<stop stop-color="#FFCC21"/>
<stop offset="1" stop-color="#FF963C"/>
</linearGradient>
<clipPath id="clip0_0_1">
<rect width="53.0001" height="45" fill="white" transform="translate(32 33)"/>
</clipPath>
<clipPath id="clip1_0_1">
<rect width="53.0001" height="45" fill="white" transform="translate(32 33)"/>
</clipPath>
</defs>
</svg>
