<svg width="116" height="134" viewBox="0 0 116 134" fill="none" xmlns="http://www.w3.org/2000/svg">
<path d="M0 33.5L58 0L116 33.5V100.5L58 134L0 100.5L0 33.5Z" fill="url(#paint0_linear_0_1)"/>
<path d="M30.9821 102V87.4545H32.7434V100.438H39.5048V102H30.9821ZM48.8798 97.5398V91.0909H50.5559V102H48.8798V100.153H48.7662C48.5105 100.707 48.1127 101.179 47.573 101.567C47.0332 101.95 46.3514 102.142 45.5275 102.142C44.8457 102.142 44.2396 101.993 43.7093 101.695C43.179 101.392 42.7624 100.937 42.4593 100.331C42.1563 99.7202 42.0048 98.9508 42.0048 98.0227V91.0909H43.6809V97.9091C43.6809 98.7045 43.9035 99.339 44.3485 99.8125C44.7984 100.286 45.3713 100.523 46.0673 100.523C46.484 100.523 46.9077 100.416 47.3386 100.203C47.7742 99.9901 48.1388 99.6634 48.4324 99.223C48.7306 98.7827 48.8798 98.2216 48.8798 97.5398ZM55.302 95.4375V102H53.6259V91.0909H55.2452V92.7955H55.3873C55.6429 92.2415 56.0312 91.7964 56.552 91.4602C57.0729 91.1193 57.7452 90.9489 58.5691 90.9489C59.3077 90.9489 59.954 91.1004 60.508 91.4034C61.062 91.7017 61.4928 92.1562 61.8006 92.767C62.1084 93.3731 62.2623 94.1402 62.2623 95.0682V102H60.5861V95.1818C60.5861 94.3248 60.3636 93.6572 59.9185 93.179C59.4734 92.696 58.8626 92.4545 58.0861 92.4545C57.5511 92.4545 57.0729 92.5705 56.6515 92.8026C56.2348 93.0346 55.9057 93.3731 55.6642 93.8182C55.4228 94.2633 55.302 94.803 55.302 95.4375ZM69.7569 102.227C68.7342 102.227 67.8535 101.986 67.1149 101.503C66.3762 101.02 65.8081 100.355 65.4103 99.5071C65.0126 98.6596 64.8137 97.6913 64.8137 96.6023C64.8137 95.4943 65.0173 94.5166 65.4245 93.669C65.8365 92.8168 66.4094 92.1515 67.1433 91.6733C67.8819 91.1903 68.7437 90.9489 69.7285 90.9489C70.4956 90.9489 71.1868 91.0909 71.8024 91.375C72.4179 91.6591 72.9222 92.0568 73.3152 92.5682C73.7082 93.0795 73.952 93.6761 74.0467 94.358H72.3706C72.2427 93.8608 71.9586 93.4205 71.5183 93.0369C71.0827 92.6487 70.4956 92.4545 69.7569 92.4545C69.1035 92.4545 68.5306 92.625 68.0382 92.9659C67.5505 93.3021 67.1693 93.7779 66.8947 94.3935C66.6248 95.0043 66.4899 95.7216 66.4899 96.5455C66.4899 97.3883 66.6225 98.1222 66.8876 98.7472C67.1575 99.3722 67.5363 99.8575 68.024 100.203C68.5164 100.549 69.094 100.722 69.7569 100.722C70.1925 100.722 70.5879 100.646 70.943 100.494C71.2981 100.343 71.5988 100.125 71.845 99.8409C72.0912 99.5568 72.2664 99.2159 72.3706 98.8182H74.0467C73.952 99.4621 73.7176 100.042 73.3436 100.558C72.9743 101.07 72.4842 101.477 71.8734 101.78C71.2673 102.078 70.5618 102.227 69.7569 102.227ZM78.1731 95.4375V102H76.497V87.4545H78.1731V92.7955H78.3152C78.5708 92.232 78.9544 91.7846 79.4657 91.4531C79.9818 91.117 80.6684 90.9489 81.5254 90.9489C82.2688 90.9489 82.9198 91.098 83.4785 91.3963C84.0372 91.6899 84.4705 92.142 84.7782 92.7528C85.0907 93.3589 85.247 94.1307 85.247 95.0682V102H83.5708V95.1818C83.5708 94.3153 83.3459 93.6454 82.8961 93.1719C82.4511 92.6937 81.8332 92.4545 81.0424 92.4545C80.4932 92.4545 80.0008 92.5705 79.5652 92.8026C79.1343 93.0346 78.7934 93.3731 78.5424 93.8182C78.2962 94.2633 78.1731 94.803 78.1731 95.4375Z" fill="white"/>
<rect opacity="0.01" x="30" y="27" width="56" height="56" fill="white"/>
<g clip-path="url(#clip0_0_1)">
<g clip-path="url(#clip1_0_1)">
<path d="M41.0234 73.2289C39.9344 74.316 39.9362 76.0846 41.0288 77.1788C42.123 78.2714 43.8917 78.2731 44.9805 77.1844L53.6829 68.4822L49.7255 64.525L41.0234 73.2289Z" fill="white"/>
<path d="M84.2807 40.3726L76.4311 48.2493L75.1201 46.9338L82.7092 38.7941L81.9738 38.0562L73.807 45.6162L72.494 44.3004L80.1175 36.1951L79.3244 35.3976L71.1828 42.9829L69.8698 41.6651L77.7191 33.7883L76.9351 33C76.9351 33 69.5451 38.8138 65.8966 41.8145C64.6176 42.8638 64.103 44.6404 64.2822 46.2911C64.528 48.523 64.7987 49.3888 63.895 50.2959L56.239 57.9764C46.4183 48.1179 35.6683 37.329 34.5616 36.2345C33.9106 35.5901 32.9776 35.5901 32.3931 36.177C30.3556 38.2217 36.5077 50.4365 44.612 60.6746C46.3017 58.97 47.839 57.4364 47.839 57.4364L67.5219 77.1858C68.7396 78.4082 70.5119 78.1255 71.4466 77.1858H71.4483C72.5317 76.0988 72.5317 74.333 71.4483 73.2457C69.3655 71.156 65.0964 66.8683 60.1764 61.9273L67.8245 54.2522C68.7432 53.3307 69.5915 53.6134 71.8161 53.8742C73.4858 54.0705 75.3137 53.5666 76.3668 52.2544C79.3334 48.5481 85.0001 41.0928 85.0001 41.0928L84.2807 40.3726Z" fill="white"/>
</g>
</g>
<defs>
<linearGradient id="paint0_linear_0_1" x1="25.9565" y1="165.202" x2="147.019" y2="118.302" gradientUnits="userSpaceOnUse">
<stop stop-color="#FFCC21"/>
<stop offset="1" stop-color="#FF963C"/>
</linearGradient>
<clipPath id="clip0_0_1">
<rect width="53.0001" height="45" fill="white" transform="translate(32 33)"/>
</clipPath>
<clipPath id="clip1_0_1">
<rect width="53.0001" height="45" fill="white" transform="translate(32 33)"/>
</clipPath>
</defs>
</svg>
