<svg width="116" height="134" viewBox="0 0 116 134" fill="none" xmlns="http://www.w3.org/2000/svg">
<path d="M0 33.5L58 0L116 33.5V100.5L58 134L0 100.5L0 33.5Z" fill="url(#paint0_linear_0_1)"/>
<path d="M38.8292 91.0909C38.744 90.3712 38.3983 89.8125 37.7923 89.4148C37.1862 89.017 36.4428 88.8182 35.5621 88.8182C34.9182 88.8182 34.3548 88.9223 33.8718 89.1307C33.3936 89.339 33.0195 89.6255 32.7496 89.9901C32.4845 90.3546 32.3519 90.7689 32.3519 91.233C32.3519 91.6212 32.4442 91.955 32.6289 92.2344C32.8183 92.509 33.0598 92.7386 33.3533 92.9233C33.6469 93.1032 33.9547 93.2524 34.2766 93.3707C34.5986 93.4844 34.8945 93.5767 35.1644 93.6477L36.6417 94.0455C37.0205 94.1449 37.4419 94.2822 37.9059 94.4574C38.3746 94.6326 38.8221 94.8717 39.2482 95.1747C39.6791 95.473 40.0342 95.8565 40.3136 96.3253C40.5929 96.794 40.7326 97.3693 40.7326 98.0511C40.7326 98.8371 40.5266 99.5473 40.1147 100.182C39.7075 100.816 39.1109 101.321 38.3249 101.695C37.5437 102.069 36.5943 102.256 35.4769 102.256C34.4353 102.256 33.5333 102.088 32.771 101.751C32.0134 101.415 31.4168 100.946 30.9812 100.345C30.5503 99.7438 30.3065 99.0455 30.2496 98.25H32.0678C32.1152 98.7992 32.2998 99.2538 32.6218 99.6136C32.9485 99.9687 33.3604 100.234 33.8576 100.409C34.3595 100.58 34.8993 100.665 35.4769 100.665C36.1493 100.665 36.753 100.556 37.288 100.338C37.823 100.116 38.2468 99.8078 38.5593 99.4148C38.8718 99.017 39.0281 98.553 39.0281 98.0227C39.0281 97.5398 38.8931 97.1468 38.6232 96.8438C38.3533 96.5407 37.9982 96.2945 37.5579 96.1051C37.1175 95.9157 36.6417 95.75 36.1303 95.608L34.3406 95.0966C33.2042 94.7699 32.3046 94.3035 31.6417 93.6974C30.9788 93.0914 30.6474 92.2983 30.6474 91.3182C30.6474 90.5038 30.8675 89.7936 31.3079 89.1875C31.753 88.5767 32.3496 88.1032 33.0977 87.767C33.8505 87.4261 34.6909 87.2557 35.619 87.2557C36.5565 87.2557 37.3898 87.4238 38.119 87.7599C38.8481 88.0914 39.4258 88.5459 39.8519 89.1236C40.2828 89.7012 40.5101 90.357 40.5337 91.0909H38.8292ZM45.0774 95.4375V102H43.4013V91.0909H45.0206V92.7955H45.1626C45.4183 92.2415 45.8066 91.7964 46.3274 91.4602C46.8482 91.1193 47.5206 90.9489 48.3445 90.9489C49.0831 90.9489 49.7294 91.1004 50.2834 91.4034C50.8374 91.7017 51.2682 92.1562 51.576 92.767C51.8838 93.3731 52.0376 94.1402 52.0376 95.0682V102H50.3615V95.1818C50.3615 94.3248 50.139 93.6572 49.6939 93.179C49.2488 92.696 48.638 92.4545 47.8615 92.4545C47.3265 92.4545 46.8482 92.5705 46.4268 92.8026C46.0102 93.0346 45.6811 93.3731 45.4396 93.8182C45.1982 94.2633 45.0774 94.803 45.0774 95.4375ZM58.3107 102.256C57.6194 102.256 56.9921 102.125 56.4286 101.865C55.8652 101.6 55.4177 101.219 55.0863 100.722C54.7549 100.22 54.5891 99.6136 54.5891 98.9034C54.5891 98.2784 54.7122 97.7718 54.9585 97.3835C55.2047 96.9905 55.5337 96.6828 55.9457 96.4602C56.3576 96.2377 56.8121 96.072 57.3093 95.9631C57.8112 95.8494 58.3155 95.7595 58.8221 95.6932C59.485 95.608 60.0224 95.544 60.4343 95.5014C60.851 95.4541 61.154 95.3759 61.3434 95.267C61.5375 95.1581 61.6346 94.9687 61.6346 94.6989V94.642C61.6346 93.9413 61.4428 93.3968 61.0593 93.0085C60.6805 92.6203 60.1052 92.4261 59.3335 92.4261C58.5333 92.4261 57.9059 92.6013 57.4513 92.9517C56.9968 93.3021 56.6772 93.6761 56.4925 94.0739L54.9016 93.5057C55.1857 92.8428 55.5645 92.3267 56.038 91.9574C56.5162 91.5833 57.0371 91.3229 57.6005 91.1761C58.1687 91.0246 58.7274 90.9489 59.2766 90.9489C59.627 90.9489 60.0295 90.9915 60.484 91.0767C60.9433 91.1572 61.386 91.3253 61.8121 91.581C62.243 91.8366 62.6005 92.2225 62.8846 92.7386C63.1687 93.2547 63.3107 93.946 63.3107 94.8125V102H61.6346V100.523H61.5494C61.4357 100.759 61.2463 101.013 60.9812 101.283C60.716 101.553 60.3633 101.782 59.9229 101.972C59.4826 102.161 58.9452 102.256 58.3107 102.256ZM58.5664 100.75C59.2293 100.75 59.788 100.62 60.2425 100.359C60.7018 100.099 61.0475 99.7628 61.2795 99.3509C61.5162 98.9389 61.6346 98.5057 61.6346 98.0511V96.517C61.5636 96.6023 61.4073 96.6804 61.1658 96.7514C60.9291 96.8177 60.6545 96.8769 60.342 96.929C60.0342 96.9763 59.7335 97.0189 59.44 97.0568C59.1512 97.09 58.9168 97.1184 58.7369 97.142C58.3013 97.1989 57.8941 97.2912 57.5153 97.419C57.1412 97.5421 56.8382 97.7292 56.6062 97.9801C56.3789 98.2263 56.2653 98.5625 56.2653 98.9886C56.2653 99.571 56.4807 100.011 56.9116 100.31C57.3472 100.603 57.8988 100.75 58.5664 100.75ZM70.8018 102.227C69.7791 102.227 68.8984 101.986 68.1598 101.503C67.4212 101.02 66.853 100.355 66.4553 99.5071C66.0575 98.6596 65.8587 97.6913 65.8587 96.6023C65.8587 95.4943 66.0623 94.5166 66.4695 93.669C66.8814 92.8168 67.4543 92.1515 68.1882 91.6733C68.9268 91.1903 69.7886 90.9489 70.7734 90.9489C71.5405 90.9489 72.2318 91.0909 72.8473 91.375C73.4628 91.6591 73.9671 92.0568 74.3601 92.5682C74.7531 93.0795 74.9969 93.6761 75.0916 94.358H73.4155C73.2876 93.8608 73.0036 93.4205 72.5632 93.0369C72.1276 92.6487 71.5405 92.4545 70.8018 92.4545C70.1484 92.4545 69.5755 92.625 69.0831 92.9659C68.5954 93.3021 68.2143 93.7779 67.9396 94.3935C67.6697 95.0043 67.5348 95.7216 67.5348 96.5455C67.5348 97.3883 67.6674 98.1222 67.9325 98.7472C68.2024 99.3722 68.5812 99.8575 69.0689 100.203C69.5613 100.549 70.139 100.722 70.8018 100.722C71.2375 100.722 71.6328 100.646 71.9879 100.494C72.343 100.343 72.6437 100.125 72.8899 99.8409C73.1361 99.5568 73.3113 99.2159 73.4155 98.8182H75.0916C74.9969 99.4621 74.7625 100.042 74.3885 100.558C74.0192 101.07 73.5291 101.477 72.9183 101.78C72.3123 102.078 71.6068 102.227 70.8018 102.227ZM79.1044 98.0227L79.076 95.9489H79.4169L84.1896 91.0909H86.2635L81.1783 96.233H81.0362L79.1044 98.0227ZM77.5419 102V87.4545H79.218V102H77.5419ZM84.4737 102L80.2124 96.6023L81.4055 95.4375L86.6044 102H84.4737Z" fill="white"/>
<rect opacity="0.01" x="30" y="31" width="56" height="56" fill="white"/>
<g clip-path="url(#clip0_0_1)">
<path fill-rule="evenodd" clip-rule="evenodd" d="M75 43.0464C72.7853 43.0464 70.9036 41.3071 70.9036 39H45.1486C45.1486 41.304 43.2163 43.0464 41 43.0464V45.6671H75V43.0464ZM42.7004 48.9999L47.9067 79H68.2008L73.3013 48.9999H42.7004ZM69.2861 52.3264L68.1519 59H47.954L46.8198 52.3264H69.2861ZM50.7872 75.6672L49.6532 69.0001H66.4528L65.3203 75.6672H50.7872Z" fill="white"/>
</g>
<defs>
<linearGradient id="paint0_linear_0_1" x1="25.9565" y1="165.202" x2="147.019" y2="118.302" gradientUnits="userSpaceOnUse">
<stop stop-color="#FFCC21"/>
<stop offset="1" stop-color="#FF963C"/>
</linearGradient>
<clipPath id="clip0_0_1">
<rect width="34" height="40" fill="white" transform="translate(41 39)"/>
</clipPath>
</defs>
</svg>
