<svg width="116" height="134" viewBox="0 0 116 134" fill="none" xmlns="http://www.w3.org/2000/svg">
<path d="M0 33.5L58 0L116 33.5V100.5L58 134L0 100.5L0 33.5Z" fill="url(#paint0_linear_0_1)"/>
<path d="M21.0114 87.4545H23.1136L28.0568 99.5284H28.2273L33.1705 87.4545H35.2727V102H33.625V90.9489H33.483L28.9375 102H27.3466L22.8011 90.9489H22.6591V102H21.0114V87.4545ZM43.0089 102.227C42.024 102.227 41.1599 101.993 40.4165 101.524C39.6779 101.055 39.1003 100.4 38.6836 99.5568C38.2717 98.714 38.0657 97.7292 38.0657 96.6023C38.0657 95.4659 38.2717 94.474 38.6836 93.6264C39.1003 92.7789 39.6779 92.1207 40.4165 91.652C41.1599 91.1832 42.024 90.9489 43.0089 90.9489C43.9937 90.9489 44.8555 91.1832 45.5941 91.652C46.3375 92.1207 46.9151 92.7789 47.3271 93.6264C47.7437 94.474 47.9521 95.4659 47.9521 96.6023C47.9521 97.7292 47.7437 98.714 47.3271 99.5568C46.9151 100.4 46.3375 101.055 45.5941 101.524C44.8555 101.993 43.9937 102.227 43.0089 102.227ZM43.0089 100.722C43.757 100.722 44.3725 100.53 44.8555 100.146C45.3384 99.7628 45.6959 99.2585 45.9279 98.6335C46.1599 98.0085 46.2759 97.3314 46.2759 96.6023C46.2759 95.8731 46.1599 95.1937 45.9279 94.5639C45.6959 93.9342 45.3384 93.4252 44.8555 93.0369C44.3725 92.6487 43.757 92.4545 43.0089 92.4545C42.2608 92.4545 41.6452 92.6487 41.1623 93.0369C40.6793 93.4252 40.3219 93.9342 40.0898 94.5639C39.8578 95.1937 39.7418 95.8731 39.7418 96.6023C39.7418 97.3314 39.8578 98.0085 40.0898 98.6335C40.3219 99.2585 40.6793 99.7628 41.1623 100.146C41.6452 100.53 42.2608 100.722 43.0089 100.722ZM50.5107 102V91.0909H52.13V92.7386H52.2436C52.4425 92.1989 52.8023 91.7609 53.3232 91.4247C53.844 91.0885 54.4311 90.9205 55.0845 90.9205C55.2076 90.9205 55.3615 90.9228 55.5462 90.9276C55.7308 90.9323 55.8705 90.9394 55.9652 90.9489V92.6534C55.9084 92.6392 55.7782 92.6179 55.5746 92.5895C55.3757 92.5563 55.165 92.5398 54.9425 92.5398C54.4122 92.5398 53.9387 92.651 53.522 92.8736C53.1101 93.0914 52.7834 93.3944 52.5419 93.7827C52.3052 94.1662 52.1868 94.6042 52.1868 95.0966V102H50.5107ZM59.6282 95.4375V102H57.9521V91.0909H59.5714V92.7955H59.7134C59.9691 92.2415 60.3574 91.7964 60.8782 91.4602C61.399 91.1193 62.0714 90.9489 62.8952 90.9489C63.6339 90.9489 64.2802 91.1004 64.8342 91.4034C65.3881 91.7017 65.819 92.1562 66.1268 92.767C66.4345 93.3731 66.5884 94.1402 66.5884 95.0682V102H64.9123V95.1818C64.9123 94.3248 64.6897 93.6572 64.2447 93.179C63.7996 92.696 63.1888 92.4545 62.4123 92.4545C61.8772 92.4545 61.399 92.5705 60.9776 92.8026C60.561 93.0346 60.2319 93.3731 59.9904 93.8182C59.7489 94.2633 59.6282 94.803 59.6282 95.4375ZM69.6513 102V91.0909H71.3274V102H69.6513ZM70.5036 89.2727C70.1768 89.2727 69.8951 89.1615 69.6584 88.9389C69.4264 88.7164 69.3104 88.4489 69.3104 88.1364C69.3104 87.8239 69.4264 87.5563 69.6584 87.3338C69.8951 87.1113 70.1768 87 70.5036 87C70.8303 87 71.1096 87.1113 71.3416 87.3338C71.5784 87.5563 71.6967 87.8239 71.6967 88.1364C71.6967 88.4489 71.5784 88.7164 71.3416 88.9389C71.1096 89.1615 70.8303 89.2727 70.5036 89.2727ZM76.0735 95.4375V102H74.3974V91.0909H76.0167V92.7955H76.1587C76.4144 92.2415 76.8027 91.7964 77.3235 91.4602C77.8443 91.1193 78.5167 90.9489 79.3406 90.9489C80.0792 90.9489 80.7255 91.1004 81.2795 91.4034C81.8335 91.7017 82.2643 92.1562 82.5721 92.767C82.8799 93.3731 83.0337 94.1402 83.0337 95.0682V102H81.3576V95.1818C81.3576 94.3248 81.1351 93.6572 80.69 93.179C80.2449 92.696 79.6341 92.4545 78.8576 92.4545C78.3226 92.4545 77.8443 92.5705 77.4229 92.8026C77.0063 93.0346 76.6772 93.3731 76.4357 93.8182C76.1942 94.2633 76.0735 94.803 76.0735 95.4375ZM90.5 106.318C89.6903 106.318 88.9943 106.214 88.4119 106.006C87.8295 105.802 87.3442 105.532 86.956 105.196C86.5724 104.865 86.267 104.509 86.0398 104.131L87.375 103.193C87.5265 103.392 87.7183 103.619 87.9503 103.875C88.1823 104.135 88.4995 104.36 88.902 104.55C89.3092 104.744 89.8419 104.841 90.5 104.841C91.3807 104.841 92.1075 104.628 92.6804 104.202C93.2533 103.776 93.5398 103.108 93.5398 102.199V99.983H93.3977C93.2746 100.182 93.0994 100.428 92.8722 100.722C92.6496 101.01 92.3277 101.268 91.9062 101.496C91.4896 101.718 90.9261 101.83 90.2159 101.83C89.3352 101.83 88.5445 101.621 87.8438 101.205C87.1477 100.788 86.5961 100.182 86.1889 99.3864C85.7865 98.5909 85.5852 97.625 85.5852 96.4886C85.5852 95.3712 85.7817 94.3982 86.1747 93.5696C86.5677 92.7363 87.1146 92.0923 87.8153 91.6378C88.5161 91.1785 89.3258 90.9489 90.2443 90.9489C90.9545 90.9489 91.518 91.0672 91.9347 91.304C92.3561 91.536 92.678 91.8011 92.9006 92.0994C93.1278 92.393 93.303 92.6345 93.4261 92.8239H93.5966V91.0909H95.2159V102.312C95.2159 103.25 95.0028 104.012 94.5767 104.599C94.1553 105.191 93.5871 105.625 92.8722 105.899C92.1619 106.179 91.3712 106.318 90.5 106.318ZM90.4432 100.324C91.1155 100.324 91.6837 100.17 92.1477 99.8622C92.6117 99.5545 92.9645 99.1117 93.206 98.5341C93.4474 97.9564 93.5682 97.2652 93.5682 96.4602C93.5682 95.6742 93.4498 94.9806 93.2131 94.3793C92.9763 93.7779 92.6259 93.3068 92.1619 92.9659C91.6979 92.625 91.125 92.4545 90.4432 92.4545C89.733 92.4545 89.1411 92.6345 88.6676 92.9943C88.1989 93.3542 87.8461 93.8371 87.6094 94.4432C87.3774 95.0492 87.2614 95.7216 87.2614 96.4602C87.2614 97.2178 87.3797 97.8878 87.6165 98.4702C87.858 99.0478 88.2131 99.5024 88.6818 99.8338C89.1553 100.161 89.7424 100.324 90.4432 100.324Z" fill="white"/>
<rect opacity="0.01" x="30" y="27" width="56" height="56" fill="white"/>
<g clip-path="url(#clip0_0_1)">
<g clip-path="url(#clip1_0_1)">
<path d="M41.0234 73.2289C39.9344 74.316 39.9362 76.0846 41.0288 77.1788C42.123 78.2714 43.8917 78.2731 44.9805 77.1844L53.6829 68.4822L49.7255 64.525L41.0234 73.2289Z" fill="white"/>
<path d="M84.2807 40.3726L76.4311 48.2493L75.1201 46.9338L82.7092 38.7941L81.9738 38.0562L73.807 45.6162L72.494 44.3004L80.1175 36.1951L79.3244 35.3976L71.1828 42.9829L69.8698 41.6651L77.7191 33.7883L76.9351 33C76.9351 33 69.5451 38.8138 65.8966 41.8145C64.6176 42.8638 64.103 44.6404 64.2822 46.2911C64.528 48.523 64.7987 49.3888 63.895 50.2959L56.239 57.9764C46.4183 48.1179 35.6683 37.329 34.5616 36.2345C33.9106 35.5901 32.9776 35.5901 32.3931 36.177C30.3556 38.2217 36.5077 50.4365 44.612 60.6746C46.3017 58.97 47.839 57.4364 47.839 57.4364L67.5219 77.1858C68.7396 78.4082 70.5119 78.1255 71.4466 77.1858H71.4483C72.5317 76.0988 72.5317 74.333 71.4483 73.2457C69.3655 71.156 65.0964 66.8683 60.1764 61.9273L67.8245 54.2522C68.7432 53.3307 69.5915 53.6134 71.8161 53.8742C73.4858 54.0705 75.3137 53.5666 76.3668 52.2544C79.3334 48.5481 85.0001 41.0928 85.0001 41.0928L84.2807 40.3726Z" fill="white"/>
</g>
</g>
<defs>
<linearGradient id="paint0_linear_0_1" x1="25.9565" y1="165.202" x2="147.019" y2="118.302" gradientUnits="userSpaceOnUse">
<stop stop-color="#FFCC21"/>
<stop offset="1" stop-color="#FF963C"/>
</linearGradient>
<clipPath id="clip0_0_1">
<rect width="53.0001" height="45" fill="white" transform="translate(32 33)"/>
</clipPath>
<clipPath id="clip1_0_1">
<rect width="53.0001" height="45" fill="white" transform="translate(32 33)"/>
</clipPath>
</defs>
</svg>
